# xmcd
#
# Track frame offsets:
#	150
#	11718
#	24116
#	35779
#	54116
#	64612
#	76233
#	91822
#	105841
#	122936
#	133561
#	144731
#
# Disc length: 2081 seconds
#
# Revision: 1
# Processed by: cddbd v1.5.2PL0 Copyright (c) Steve Scherf et al.
# Submitted via: audiograbber 1.83.01
#
DISCID=8f081f0c
DTITLE=The Kingdom Heirs - Off The Record
DYEAR=2006
DGENRE=Southern Gospel
TTITLE0=Move That Mountain
TTITLE1=When My Master Walks With Me
TTITLE2=I've Got Something To Shout About
TTITLE3=I Know He Heard My Prayer
TTITLE4=Sea Walker
TTITLE5=On That Judgement Day
TTITLE6=Let The Lower Lights Be Burning
TTITLE7=I Know It Was Jesus
TTITLE8=Hide Thou Me
TTITLE9=Nicodemus
TTITLE10=Beyond The Gates
TTITLE11=Oh What A Time
EXTD=
EXTT0=
EXTT1=
EXTT2=
EXTT3=
EXTT4=
EXTT5=
EXTT6=
EXTT7=
EXTT8=
EXTT9=
EXTT10=
EXTT11=
PLAYORDER=
